<svg xmlns="http://www.w3.org/2000/svg" style="display: none;">
  <symbol id="actions-icon-benefits" viewBox="0 0 1000 1000">
<style>.st0{display:none}.st1{display:inline}.st2{fill:#231815}.st3{fill:#fff}.st4{fill:#c4b8ad}.st5{fill:#aea098}.st6{fill:#ffce78}.st7{fill:#fccc75}.st10,.st9{display:inline;fill:#fff}.st10{fill:#c4b8ad}.st11,.st12,.st14{display:inline;fill:#aea098}.st12,.st14{fill:#ffce78}.st14{fill:#fccc75}</style><path d="M871.93 982.09H128.07c-60.84 0-110.16-49.32-110.16-110.16V128.07c0-60.84 49.32-110.16 110.16-110.16h743.86c60.84 0 110.16 49.32 110.16 110.16v743.86c0 60.84-49.32 110.16-110.16 110.16" class="st3"/><path d="M871.93 0H128.06C57.45 0 0 57.45 0 128.07v743.86C0 942.55 57.45 1000 128.06 1000h743.86c70.62 0 128.07-57.45 128.07-128.07V128.07C1000 57.45 942.54 0 871.93 0m92.26 128.07v743.86c0 50.87-41.39 92.25-92.26 92.25H128.06c-50.87 0-92.25-41.39-92.25-92.25V128.07c0-50.87 41.38-92.25 92.25-92.25h743.86c50.88-.01 92.27 41.38 92.27 92.25" class="st4"/><path d="M355.39 488.62c-34.79 0-69.58.07-104.36-.02-23.7-.06-34.37-10.78-34.46-34.58-.1-25.05-.13-50.09.01-75.14.13-22.94 11.07-33.75 34.22-33.77 69.92-.07 139.85-.05 209.77-.01 14.94.01 17.83 2.81 17.86 17.51.07 36.53.08 73.05-.01 109.58-.03 13.79-2.68 16.39-16.58 16.41-35.49.06-70.97.02-106.45.02M645.18 345.07c34.79 0 69.58-.07 104.37.03 22.52.06 33.69 10.94 33.84 33.1.18 25.74.17 51.49 0 77.23-.15 22.21-11.25 33.13-33.77 33.15-70.27.09-140.55.06-210.82.01-14.52-.01-17.22-2.69-17.25-16.94-.07-36.53-.07-73.06 0-109.58.03-14.35 2.7-16.95 17.18-16.98 35.48-.05 70.97-.02 106.45-.02M385.93 327.46c-20.66-.12-38.19-2.39-55.16-7.99-47.83-15.78-62.83-70.68-29.83-108.89 17.84-20.65 41.72-22.81 66.03-19.1 42.2 6.44 77.33 27.94 108.93 55.66 3.59 3.15 6.34 7.38 9.07 11.38 11.69 17.13 7.85 36.5-9.48 48.03-18.84 12.54-40.52 16.07-62.28 18.75-9.94 1.22-19.96 3-27.28 2.16m48.78-54.29c-27.78-18.78-52.75-35.76-85.21-35.77-9.28 0-15.19 3.38-17.05 13.03-2.39 12.38.12 18.43 10.36 23.12 7.68 3.52 15.91 5.1 24.18 5.96 21.83 2.3 43.32.56 67.72-6.34M611.83 327.41c-24.33-1.66-53.97-3.05-80.86-17.44-25.07-13.41-30.8-36.41-11.14-56.45 36.51-37.22 79.7-62.67 133.96-62.85 29.18-.09 51.16 16.78 58.87 43.95 9.55 33.66 1.3 59.24-24.5 76-16.57 10.76-41.89 16.74-76.33 16.79m6.25-46.94c12.09.25 26.75-1.6 40.77-7.49 9.26-3.89 11.91-10.6 9.96-20.13-1.97-9.62-6.16-15.56-17.21-15.49-30.45.17-55.06 14.69-78.88 31.25-5.69 3.95-2.25 6.19 2.25 7.2 13.2 2.95 26.58 4.64 43.11 4.66" class="st6"/><path d="M746.69 516.66H253.31c-20.5 0-37.11 16.62-37.11 37.11v219.11c0 20.5 16.62 37.11 37.11 37.11h493.38c20.5 0 37.11-16.62 37.11-37.11v-219.1c0-20.5-16.62-37.12-37.11-37.12" class="st5"/><path d="m347.69 743.57-56.52-160.18h37.2l23.83 73.99c7.22 22.38 12.74 41.38 16.43 57.75h.47c3.28-14.94 9.53-34.52 17.16-57.22l24.98-74.51h35.33l-58.02 160.18h-40.86zM523.86 583.39v160.18h-34.64V583.39zM585.42 583.39h66.27c34.03 0 57.14 19.16 57.14 49.6 0 34.79-26.35 50.76-57.95 50.76h-30.79v59.82h-34.66V583.39zm34.66 72.79h26.43c16.03 0 27.35-6.17 27.35-22.52 0-16.52-11.95-22.7-26.63-22.7h-27.16v45.22z" class="st3"/>
  </symbol>
  <symbol id="actions-icon-best" viewBox="0 0 1000 1000">
<style>.st0{display:none}.st1{display:inline}.st2{fill:#231815}.st3{fill:#fff}.st4{fill:#c4b8ad}.st5{fill:#aea098}.st6{fill:#ffce78}.st7{fill:#fccc75}.st10,.st9{display:inline;fill:#fff}.st10{fill:#c4b8ad}.st11,.st12,.st14{display:inline;fill:#aea098}.st12,.st14{fill:#ffce78}.st14{fill:#fccc75}</style><path d="M871.93 982.09H128.07c-60.84 0-110.16-49.32-110.16-110.16V128.07c0-60.84 49.32-110.16 110.16-110.16h743.86c60.84 0 110.16 49.32 110.16 110.16v743.86c0 60.84-49.32 110.16-110.16 110.16" class="st3"/><path d="M871.92 0H128.06C57.45 0 0 57.45 0 128.07v743.86C0 942.55 57.45 1000 128.06 1000h743.86c70.62 0 128.07-57.45 128.07-128.07V128.07C1000 57.45 942.55 0 871.92 0m92.26 128.07v743.86c0 50.87-41.38 92.25-92.25 92.25H128.06c-50.87 0-92.25-41.39-92.25-92.25V128.07c0-50.87 41.38-92.25 92.25-92.25h743.86c50.88-.01 92.26 41.38 92.26 92.25" class="st4"/><path d="M499.95 856.84c-26.43-22.31-52.55-43.59-77.71-65.97-9.84-8.76-19.4-10.43-32.07-8.71-33.71 4.59-67.64 7.57-102.6 11.31-7.1-33.47-14.77-66.12-20.69-99.09-2.65-14.75-8.16-24.52-22.1-31.79-29.79-15.55-58.48-33.18-88.59-50.52 7.74-17.56 15.12-34.43 22.6-51.25 7.69-17.29 16.06-34.32 22.9-51.94 2.1-5.41 2.05-13.18-.21-18.52-14.45-34.01-29.79-67.63-45.36-102.55 11.83-6.89 22.97-13.41 34.14-19.87 18.6-10.74 36.72-22.47 56.01-31.78 13.05-6.3 17.81-15.64 20.29-28.87 6.28-33.39 13.65-66.58 20.82-101.02 18.19 1.88 35.66 3.57 53.1 5.52 18.82 2.11 37.57 5.32 56.45 6.28 7.08.36 15.83-2.45 21.38-6.87 24.38-19.44 47.85-40.02 71.69-60.14 3.18-2.69 6.6-5.1 10.28-7.92 27.53 23.14 54.31 46.27 81.92 68.35 5.49 4.39 14.39 7.21 21.35 6.6 33.12-2.9 66.15-7 99.14-11.24 7.59-.98 10.49 1.09 11.95 8.48 6.51 32.99 13.67 65.85 20.24 98.82 1.66 8.32 5.11 14.04 12.93 18.39 31.96 17.8 63.52 36.33 96.04 55.06-14.8 33.27-28.82 66.07-44.05 98.3-4.83 10.23-4.44 18.29.26 28.3 14.98 31.93 28.92 64.34 43.8 97.77-21.83 12.61-43.27 24.88-64.6 37.34-13.78 8.05-31.38 13.49-39.97 25.38s-8.22 30.32-11.54 45.93c-4.55 21.37-9.07 42.75-13.21 64.2-1.3 6.72-4.02 8.99-11.11 8.09-33-4.18-66.06-7.81-99.09-11.73-8.69-1.03-15.77.48-22.97 6.79-26.28 23.1-53.35 45.28-81.42 68.87m-84.61-273.99v-165.6h-40.63v61.63h-41.64V417.1H292.7v165.39h40.8v-61.26h42.04v61.62zm148.28-82.66-1.25-.12c0-8.43.38-16.88-.07-25.29-1.66-31.65-28.75-57.69-60.47-58.42-32.44-.75-60.55 22.9-63.11 54.88-1.51 18.81-1.46 37.93-.05 56.76 2.19 29.2 26.3 52.41 55.12 55.17 29.57 2.83 57.9-15.53 65.54-44.31 3.29-12.4 2.97-25.75 4.29-38.67m102.95 82.71V457.81h41.19V417.3H584.31v40.84h41.2V582.9z" class="st7"/><path d="M479.1 499.49c-.01-7.14-.39-14.31.08-21.42.75-11.38 9.64-19.78 20.43-19.96 11-.19 20.06 7.63 20.58 19.43.67 15.08.66 30.25-.09 45.33-.55 11.09-9.46 18.65-19.94 18.75-10.75.1-20.1-8.22-20.95-19.45-.56-7.52-.1-15.12-.11-22.68" class="st7"/>
  </symbol>
  <symbol id="actions-icon-brand" viewBox="0 0 1000 1000">
<style>.st0{display:none}.st1{display:inline}.st2{fill:#231815}.st3{fill:#fff}.st4{fill:#c4b8ad}.st5{fill:#aea098}.st6{fill:#ffce78}.st7{fill:#fccc75}.st10,.st9{display:inline;fill:#fff}.st10{fill:#c4b8ad}.st11,.st12,.st14{display:inline;fill:#aea098}.st12,.st14{fill:#ffce78}.st14{fill:#fccc75}</style><path d="M871.93 982.09H128.07c-60.84 0-110.16-49.32-110.16-110.16V128.07c0-60.84 49.32-110.16 110.16-110.16h743.86c60.84 0 110.16 49.32 110.16 110.16v743.86c0 60.84-49.32 110.16-110.16 110.16" class="st3"/><path d="M871.92 0H128.06C57.45 0 0 57.45 0 128.07v743.86C0 942.55 57.45 1000 128.06 1000h743.86c70.62 0 128.07-57.45 128.07-128.07V128.07C1000 57.45 942.55 0 871.92 0m92.26 128.07v743.86c0 50.87-41.38 92.25-92.25 92.25H128.06c-50.87 0-92.25-41.39-92.25-92.25V128.07c0-50.87 41.38-92.25 92.25-92.25h743.86c50.88-.01 92.26 41.38 92.26 92.25" class="st4"/><path d="M500.25 242.48c82.67 0 165.34-.11 248 .06 37.72.08 65.85 19.46 75.92 52.29 2.36 7.7 3.8 16.02 3.82 24.05.25 103.72.22 207.45.14 311.17-.03 40.75-28.52 73.87-69.08 75.72-49.03 2.24-98.23 1.82-147.34.94-17-.3-29.45 3.85-40.62 16.89-12.64 14.76-27.13 27.98-41.14 41.54-19.21 18.6-40.71 18.44-59.92-.41-16.98-16.66-33.33-33.97-50.68-50.21-4.28-4.01-11.36-7.01-17.2-7.08-48.35-.56-96.71.04-145.05-.57-12.28-.15-25.15-1.53-36.64-5.53-29.13-10.12-48.36-38.12-48.43-69.32-.26-104.89-.37-209.79.03-314.68.16-43.41 33.44-74.6 79.02-74.79 70.58-.29 141.16-.08 211.74-.09 12.48.01 24.95.01 37.43.02m-.54 129.94c-7.84-6.19-14.59-12.11-21.9-17.19-48.64-33.84-114.3-6.87-124.85 51.38-5.86 32.35 3.88 61.7 19.52 89.32 26.91 47.53 67.89 80.6 113.67 108.49 10.59 6.45 21.16 4.97 30.66-1.87 20.2-14.54 41.19-28.29 59.72-44.77 36.84-32.78 64.51-71.45 71.16-122.38 4.39-33.6-9.26-65.58-38.23-82.91-30.17-18.05-60.05-15.97-88.8 3.75-7.03 4.83-13.54 10.43-20.95 16.18" class="st5"/><path d="M499.71 372.42c7.41-5.76 13.91-11.35 20.95-16.18 28.75-19.73 58.62-21.81 88.8-3.75 28.98 17.34 42.62 49.32 38.23 82.91-6.65 50.92-34.32 89.59-71.16 122.38-18.52 16.48-39.52 30.23-59.72 44.77-9.5 6.84-20.07 8.33-30.66 1.87-45.78-27.89-86.76-60.95-113.67-108.49-15.64-27.63-25.38-56.98-19.52-89.32 10.55-58.26 76.2-85.22 124.85-51.38 7.32 5.09 14.06 11 21.9 17.19" class="st3"/>
  </symbol>
  <symbol id="actions-icon-bundle" viewBox="0 0 1000 1000">
<style>.st0{display:none}.st1{display:inline}.st2{fill:#231815}.st3{fill:#fff}.st4{fill:#c4b8ad}.st5{fill:#aea098}.st6{fill:#ffce78}.st7{fill:#fccc75}.st10,.st9{display:inline;fill:#fff}.st10{fill:#c4b8ad}.st11,.st12,.st14{display:inline;fill:#aea098}.st12,.st14{fill:#ffce78}.st14{fill:#fccc75}</style><path d="M871.93 982.09H128.07c-60.84 0-110.16-49.32-110.16-110.16V128.07c0-60.84 49.32-110.16 110.16-110.16h743.86c60.84 0 110.16 49.32 110.16 110.16v743.86c0 60.84-49.32 110.16-110.16 110.16" class="st3"/><path d="M871.93 0H128.06C57.45 0 0 57.45 0 128.07v743.86C0 942.55 57.45 1000 128.06 1000h743.86c70.62 0 128.07-57.45 128.07-128.07V128.07C1000 57.45 942.55 0 871.93 0m92.26 128.07v743.86c0 50.87-41.39 92.25-92.26 92.25H128.06c-50.87 0-92.25-41.39-92.25-92.25V128.07c0-50.87 41.39-92.25 92.25-92.25h743.86c50.88-.01 92.27 41.38 92.27 92.25" class="st4"/><path d="M277.56 366.65c7.85 32.9 15.54 65.1 23.21 97.31 9.41 39.53 18.99 79.03 27.99 118.66 1.45 6.38 3.98 8.21 10.12 8.2 113.71-.13 227.42-.03 341.13-.2 14.02-.02 22.31-6.72 25.52-19.85 16.49-67.52 32.8-135.09 49.75-205.02-14.01 0-27.07.01-40.12 0-4.7 0-9.41.02-14.11-.11-10-.29-15.48-6.03-15.57-15.48-.08-9.03 5.86-15.14 14.66-15.36 25.08-.62 50.19-.7 75.27-.03 11.82.32 17.02 9.88 13.82 23.19-10.77 44.84-21.65 89.65-32.53 134.46-6.72 27.71-13.4 55.44-20.3 83.11-7.75 31.13-26.93 46.02-59.13 46.03-122.73.03-245.45-.01-368.18.04-19.8.01-32.05 11.58-31.73 29.55.24 13.89 9.12 24.65 22.91 27.05 5.36.94 10.91 1.09 16.37 1.09 135.27.06 270.55.04 405.82.06 4.7 0 9.42.03 14.09.46 8.7.8 13.5 5.79 13.93 14.48.44 8.9-4.68 14.05-12.81 15.69-5.67 1.15-11.65.8-20.31 1.28 25.1 16.12 38.44 37.26 37.09 65.19-.96 19.96-9.87 36.8-25.79 49.55-29.13 23.33-71.82 17.93-95.26-12.11-19.4-24.86-23.43-71.78 22.31-102.04h-286.7c20.04 13.56 33.84 30.53 35.64 54.68 1.79 23.93-6.21 44.12-25.05 59.1-29.91 23.77-72.48 18.47-95.23-11.29-25.32-33.12-17.36-72.33 21.82-102.6-37.6-6.08-60.59-25.53-59.76-65.04.58-27.94 17.67-46.08 51.95-57.02-7.26-30.91-14.47-61.94-21.83-92.93-17.69-74.51-35.66-148.95-52.93-223.56-2.13-9.21-5.71-12.01-14.76-11.48-12.89.75-25.87.35-38.81.12-10.91-.2-17.04-5.8-17.21-15.07-.17-9.08 6.29-15.68 16.65-15.83 20.78-.3 41.56-.15 62.34-.06 10.43.05 15.19 6.46 17.4 15.83 6.19 26.24 12.92 52.35 18.54 78.71 1.61 7.53 4.64 9.31 11.69 9.22 25.48-.34 50.97-.24 76.46-.08 11.76.08 18.11 5.54 18.44 15.14.35 10.09-5.47 15.84-17.27 15.97-23.52.25-47.05.07-70.58.14-2.65 0-5.28.48-8.95.85m60.77 369.93c-20.44-.36-36.96 15.53-37.22 35.79-.25 19.77 16.6 37.07 36.25 37.21 19.12.13 36.06-16.39 36.55-35.65.53-20.36-15.33-36.99-35.58-37.35m312.59 34.58c-.9 20.2 14.47 37.2 34.68 38.37 19.4 1.13 36.89-15.4 37.63-35.57.73-19.72-14.65-36.49-34.25-37.33-20.78-.89-37.15 13.96-38.06 34.53" class="st5"/><path d="m270.31 354.7 59.9 242.78 381.87 6.95 60.95-269.73H260.42z" class="st5"/><circle cx="535.39" cy="354.97" r="195.68" style="fill:#ffca6c;stroke:#fff;stroke-width:19.7631;stroke-miterlimit:10"/><path d="m408.98 408.86 14.16-104.25c-6.87 2.12-18.98 2.97-26.03 2.63l3.08-22.65c13.55-.63 27.94-6.34 37.11-14.01l21.42 2.91-18.96 139.55zM563.5 308.09l-6.35 46.75 45.8 6.22-3.44 25.33-45.8-6.22-6.45 47.48-25.53-3.47 6.45-47.48-46.33-6.3 3.44-25.33 46.33 6.3 6.35-46.75zM637.26 439.87l14.16-104.25c-6.87 2.12-18.98 2.97-26.03 2.63l3.08-22.65c13.55-.63 27.94-6.34 37.11-14.01L687 304.5l-18.96 139.55z" class="st3"/>
  </symbol>
  <symbol id="actions-icon-choose" viewBox="0 0 1000 1000">
<style>.st0{display:none}.st1{display:inline}.st2{fill:#231815}.st3{fill:#fff}.st4{fill:#c4b8ad}.st5{fill:#aea098}.st6{fill:#ffce78}.st7{fill:#fccc75}.st10,.st9{display:inline;fill:#fff}.st10{fill:#c4b8ad}.st11,.st12,.st14{display:inline;fill:#aea098}.st12,.st14{fill:#ffce78}.st14{fill:#fccc75}</style><path d="M871.93 982.09H128.07c-60.84 0-110.16-49.32-110.16-110.16V128.07c0-60.84 49.32-110.16 110.16-110.16h743.86c60.84 0 110.16 49.32 110.16 110.16v743.86c.01 60.84-49.31 110.16-110.16 110.16" class="st3"/><path d="M871.93 0H128.07C57.45 0 0 57.45 0 128.07v743.86C0 942.55 57.45 1000 128.07 1000h743.86c70.62 0 128.07-57.45 128.07-128.07V128.07C1000 57.45 942.55 0 871.93 0m92.27 128.07v743.86c0 50.87-41.39 92.25-92.27 92.25H128.07c-50.87 0-92.25-41.39-92.25-92.25V128.07c0-50.87 41.38-92.25 92.25-92.25h743.86c50.87-.01 92.27 41.38 92.27 92.25" class="st4"/><path d="M772.24 320.76c0-22.37-.06-41.92.02-61.46.08-18.94 10.58-31.09 26.47-30.86 15.57.22 25.74 12.05 25.8 30.33.08 24.54.18 49.09-.03 73.63-.36 42.69-34.82 78.73-77.61 80.2-26.43.91-52.92.5-79.38.15-16.68-.23-28.57-12.03-28.43-27.04.14-15.04 11.97-26.32 28.76-26.7 16.1-.36 32.21.05 48.32-.22 4.34-.07 10.53 2.45 12.61-2.24 1.87-4.21-3.19-8.16-5.76-11.81-37.6-53.42-87.71-89.44-150.7-106.94-159.1-44.2-318.66 62.72-341.2 227.17-19.77 144.26 82.14 280.69 226.22 303.66 18.55 2.96 37.21 4.65 56.04 2.83 4.18-.4 8.44-.47 12.64-.22 15.9.93 27.6 12.44 27.56 26.87-.04 14.06-10.97 25.98-26.49 26.59-19.52.77-39.24 1.55-58.62-.36-77.74-7.65-144.07-39.98-199.29-95.14-106.08-105.96-124.64-277.74-43.14-403.6 57.59-88.93 139.36-141.45 244.93-149.85 123.99-9.86 223.53 38.02 296.69 139.28.9 1.22 1.89 2.36 4.59 5.73" class="st5"/><path d="M527.25 424.12c.01 31.42-.25 62.84.15 94.25.15 11.53-3.49 20.54-11.67 28.7-30.37 30.29-60.36 60.96-90.51 91.47-7.76 7.85-16.39 14.34-28.2 12.68-10.71-1.51-18.31-7.66-21.87-18.02-3.78-10.98-.4-20.39 7.47-28.33 24.81-25.03 49.12-50.61 74.85-74.67 11.95-11.18 16.56-22.71 16.28-39.02-.95-55.15-.43-110.33-.31-165.5.04-17.37 9.31-28.67 23.81-29.84 17.6-1.42 29.74 9.7 29.9 28.29.29 33.33.09 66.66.1 99.99M819.55 565.5c-1.95 10.89-3.94 23.49-9.41 34.95-5.69 11.93-20.34 17.5-32.14 13.3-12.38-4.41-20.38-17.16-17.79-29.93 2.05-10.1 4.62-20.22 8.22-29.87 4.61-12.37 17.64-18.98 29.59-16.31 12.93 2.89 21.34 13.16 21.53 27.86M724.83 724.08c-19.54-.02-32.16-19.19-23.62-37.06 5.64-11.8 14.51-21.7 24.45-30.13 8.52-7.23 20.95-7.03 30.03-.52 9.18 6.59 14.4 15.98 11.04 26.92-4.97 16.16-16.23 28.34-29.68 38.29-3.44 2.55-7.95 2.58-12.22 2.5M672.67 761.71c-.01.38.01.77-.01 1.15-.91 19.31-17.05 23.47-30.27 30.75-11.18 6.16-22.17 8.61-33.46.73-14.6-10.2-15.44-32.11-1-42.34 9.33-6.61 19.44-12.38 30.45-15.92 17.97-5.78 34.49 6.73 34.29 25.63" class="st5"/>
  </symbol>
  <symbol id="actions-icon-delivery" viewBox="0 0 1000 1000">
<style>.st0{display:none}.st1{display:inline}.st2{fill:#231815}.st3{fill:#fff}.st4{fill:#c4b8ad}.st5{fill:#aea098}.st6{fill:#ffce78}.st7{fill:#fccc75}.st10,.st9{display:inline;fill:#fff}.st10{fill:#c4b8ad}.st11,.st12,.st14{display:inline;fill:#aea098}.st12,.st14{fill:#ffce78}.st14{fill:#fccc75}</style><path d="M871.93 982.09H128.06c-60.84 0-110.16-49.32-110.16-110.16V128.07c0-60.84 49.32-110.16 110.16-110.16h743.86c60.84 0 110.16 49.32 110.16 110.16v743.86c.01 60.84-49.31 110.16-110.15 110.16" class="st3"/><path d="M871.93 0H128.06C57.45 0 0 57.45 0 128.07v743.86C0 942.55 57.45 1000 128.06 1000h743.86c70.62 0 128.07-57.45 128.07-128.07V128.07C999.99 57.45 942.54 0 871.93 0m92.25 128.07v743.86c0 50.87-41.39 92.25-92.25 92.25H128.06c-50.87 0-92.25-41.39-92.25-92.25V128.07c0-50.87 41.38-92.25 92.25-92.25h743.86c50.87-.01 92.26 41.38 92.26 92.25" class="st4"/><path d="M351.36 250.91c69.61 0 139.23-.03 208.84.02 21.02.02 23.71 2.68 23.72 23.69.05 121.94.05 256.94 0 378.88-.01 21.55-2.79 24.23-24.56 24.24-58.24.03-116.48.04-174.72-.01-19.3-.02-21.19-1.66-25.29-20.81-8.49-39.66-44.3-67.28-86.61-66.82-42.42.46-77.69 28.48-85.02 68.56-2.48 13.55-8.67 20.16-22.78 19.19-8.6-.59-17.28-.05-25.93-.12-18.59-.15-22.63-4.08-22.7-22.25-.07-19.11-.02-38.22-.02-57.33V276.6c0-22.8 2.9-25.68 26.2-25.69 69.65-.02 139.26-.01 208.87 0M615.45 499.86c0-47.32-.06-94.64.03-141.96.03-18.74 4.54-23.33 23.27-23.41 32.3-.15 64.64-.75 96.9.46 7.96.3 17.98 4.89 23.14 10.88 39.45 45.85 78.14 92.36 116.43 139.17 4.7 5.74 7.92 14.48 8.04 21.89.73 44.58.29 102.24.42 146.83.03 11.56-.29 22.35-15.55 23.91-22.74 2.32-28.92-.89-32.69-18.53-7.24-33.91-27.72-55.94-60.68-65.09-34.09-9.46-65.86-2.79-89.83 23.8-10.4 11.54-16.54 27.78-21.77 42.88-5.26 15.16-9.14 18.47-31.3 17.1-14.29-.88-16.52-9.8-16.48-21.54.17-47.77.07-108.62.07-156.39m111.28-26.78c20.42 0 40.88.69 61.24-.42 6.21-.34 14.66-4.18 17.45-9.07 2.36-4.13-.12-13.56-3.69-18.1-18.8-23.86-38.27-47.23-58.39-69.99-4.23-4.79-12-8.59-18.36-8.96-19.9-1.14-39.91-.67-59.88-.35-14.61.23-18.9 5.01-18.98 20.15-.11 21.78-.1 43.57-.01 65.35.07 16.97 4.57 21.3 22.07 21.36 19.52.09 39.03.03 58.55.03" class="st5"/><path d="M749.43 619.63c35.63.01 65.21 29.1 65.58 64.5.37 35.61-29.91 65.25-66.39 64.96-36.02-.28-64.68-29.26-64.42-65.14.25-35.77 29.21-64.33 65.23-64.32m.53 83.66c10.01-.36 19.18-10.1 18.62-19.75-.6-10.13-9.85-18.04-20.44-17.48-10.36.54-17.66 8.29-17.52 18.61.13 10.4 9.06 19 19.34 18.62M338.28 683.81c.31 36.57-27.65 65.07-64.07 65.3-36.57.23-65.23-27.86-65.44-64.13-.21-36.44 28.06-65.21 64.23-65.36 36.68-.15 64.97 27.68 65.28 64.19m-65.16 19.56c9.58.26 19.58-9.2 19.78-18.71.2-9.65-9.14-18.77-19.34-18.62-11.42.17-17.51 6.6-18.54 17.51-.96 10.08 8.1 19.55 18.1 19.82" class="st5"/>
  </symbol>
  <symbol id="actions-icon-glass" viewBox="0 0 1000 1000">
<style>.st0{display:none}.st1{display:inline}.st2{fill:#231815}.st3{fill:#fff}.st4{fill:#c4b8ad}.st5{fill:#aea098}.st6{fill:#ffce78}.st7{fill:#fccc75}.st10,.st9{display:inline;fill:#fff}.st10{fill:#c4b8ad}.st11,.st12,.st14{display:inline;fill:#aea098}.st12,.st14{fill:#ffce78}.st14{fill:#fccc75}</style><path d="M871.93 982.09H128.06c-60.84 0-110.16-49.32-110.16-110.16V128.07c0-60.84 49.32-110.16 110.16-110.16h743.86c60.84 0 110.16 49.32 110.16 110.16v743.86c.01 60.84-49.31 110.16-110.15 110.16" class="st3"/><path d="M871.93 0H128.06C57.45 0 0 57.45 0 128.07v743.86C0 942.55 57.45 1000 128.06 1000h743.87c70.62 0 128.07-57.45 128.07-128.07V128.07C1000 57.45 942.55 0 871.93 0m0 964.19H128.06c-50.87 0-92.25-41.39-92.25-92.25V128.07c0-50.87 41.38-92.25 92.25-92.25h743.87c50.87 0 92.25 41.39 92.25 92.25v743.86c0 50.87-41.38 92.26-92.25 92.26" class="st4"/><path d="M860 512.93c-13.02-5.4-26.3-9.92-40.14-12.57-60.26-11.52-120.6-10.92-180.57 1.26-34.99 7.11-68.64 18.14-96.95 41.78-29.6 24.72-53.06 25.12-82.74.77-21.59-17.71-46.07-28.48-72.41-36.26-39.11-11.56-79.22-14.98-119.79-15.67-39.57.75-78.96 3.16-116.69 16.81-8 2.89-19.56 4.25-20.46 14.11-1.31 14.41-5.86 30.4 3.3 43.39 7.33 10.39 12.01 21.17 14.99 33.21 6.1 24.68 8.75 50.17 17.43 74.25 13.93 38.66 39.54 65.66 78.52 79.68 18.27 6.58 36.96 11.23 56.26 13.19 61.08 6.2 111.88-10.69 146.58-64.74 9.95-15.49 21.32-30.09 32.42-44.81 12.09-16.05 29.6-16.04 41.67.1 12.1 16.17 24.1 32.43 35.42 49.15 23.29 34.37 55.26 54.63 96.32 60.09 21.01 2.79 42.15 1.9 62.96-2.03C784.57 751.72 826 722.71 842.67 647.3c1.14-5.14 1.87-10.36 3.02-15.49 4.09-18.38 3.86-39.15 15.18-54.01 11.54-15.14 10.48-30.5 11.14-46.89.37-9.48-3.75-14.55-12.01-17.98M437.4 614.48c-7.76 37.88-23.99 71.48-55.83 95.53-19.54 14.76-42.05 19.04-68.1 17.44-45.22 3.61-77.59-17.97-98.43-59.49-12.69-25.3-23.9-50.88-23.32-79.97.51-25.67 12.57-43.1 37.05-49.57 69.44-18.36 133.99-6.23 193.23 33.86 14.69 9.93 18.71 26.05 15.4 42.2m371.07-9.97c-5.74 36.2-21.23 68.54-45.35 96.47-4.65 5.38-10.27 9.54-16.25 13.28-49.77 31.04-125.17 14.02-156.65-35.23-11.44-17.9-20.4-36.89-25.49-57.52-5.81-23.54 1.41-41.18 21.51-54.23 37.24-24.17 81.22-36.95 128.9-36.95 15.03-.46 31.44 2.12 47.87 5.29 40.74 7.87 50.65 36.19 45.46 68.89M169.56 489.69c18-4.15 36.25-6.74 54.65-7.95 9.49-.62 16.26-4.87 22.71-11.42 26.48-26.92 53.27-53.55 80-80.22 26.42-26.36 52.81-52.76 79.41-78.94 11.92-11.73 24.75-19.31 43.38-16.79 15.52 2.09 31.36-2.26 45.6-10.21 13.9-7.77 20.66-19.9 21.87-35.34 1.08-13.75-2.52-17.38-20.14-17.08-55.41 5.34-108.73 25.16-153.75 65.29-50.57 45.09-95.37 95.8-141.89 144.84-12.39 13.06-24.44 26.43-36.52 39.78-1.91 2.11-5.12 4.6-2.72 7.84 1.81 2.42 4.9.78 7.4.2M436.23 337.97c-10.06 1.82-13.03 6.99-10.34 16.8 4.57 16.67 14.1 27.97 31.44 31.85 15.34 3.43 31.1 3.87 45.46-1.81 18-7.13 33.33-3.2 48.82 5.73 35.75 20.6 72.72 39.36 107.03 62.13 22.98 15.24 46.53 24.79 72.18 27.76l-.1.09 1.05.05c5.77.63 11.65.9 17.65.85l58.25 2.8c.27-6-3.78-7.04-6.48-8.72-66.62-41.64-131.98-85.53-202.89-119.77-51.62-24.96-106.26-27.86-162.07-17.76" class="st7"/>
  </symbol>
  <symbol id="actions-icon-store" viewBox="0 0 1000 1000">
<style>.st0{display:none}.st1{display:inline}.st2{fill:#231815}.st3{fill:#fff}.st4{fill:#c4b8ad}.st5{fill:#aea098}.st6{fill:#ffce78}.st7{fill:#fccc75}.st9{display:inline;fill:#fff}.st10,.st11,.st13{display:inline;fill:#c4b8ad}.st11,.st13{fill:#aea098}.st13{fill:#fccc75}</style><path d="M871.93 982.09H128.07c-60.84 0-110.16-49.32-110.16-110.16V128.07c0-60.84 49.32-110.16 110.16-110.16h743.86c60.84 0 110.16 49.32 110.16 110.16v743.86c0 60.84-49.32 110.16-110.16 110.16" class="st3"/><path d="M871.93 0H128.07C57.46 0 0 57.45 0 128.07v743.86C0 942.55 57.46 1000 128.07 1000h743.85c70.62 0 128.07-57.45 128.07-128.07V128.07C1000 57.45 942.54 0 871.93 0m92.26 128.07v743.86c0 50.87-41.39 92.25-92.26 92.25H128.07c-50.87 0-92.26-41.39-92.26-92.25V128.07c0-50.87 41.39-92.25 92.26-92.25h743.85c50.88-.01 92.27 41.38 92.27 92.25" class="st4"/><path d="M573.81 570.09v218.24H205.93v-218.6h-37.35c1.72-32.89-2.54-64.65 4.42-96.53 10.83-49.64 20.39-99.57 29.8-149.5 1.83-9.69 5.49-12.32 15.18-12.28 92.2.39 184.4.23 276.6.23 95.34 0 190.68.12 286.02-.19 9.69-.03 14.15 1.97 16.15 12.6 10.57 56.09 23.61 111.75 32.7 168.05 4 24.73.67 50.65.67 77.08h-35.77v219.19h-74.03v-218.3c-49.36.01-97.06.01-146.51.01m-293.78 144.9H498.7V570.1H280.03z" class="st5"/><path d="M206.3 258.9h586.73v31.18H206.3zM206.3 211.61h586.73v31.18H206.3z" class="st6"/>
  </symbol>
</svg>