<svg xmlns="http://www.w3.org/2000/svg" style="display: none;">
  <defs>
    <!-- Search Icon -->
    <symbol id="icon-search" viewBox="0 0 24 24" fill="none" stroke="currentColor" stroke-width="2" stroke-linecap="round" stroke-linejoin="round">
      <circle cx="11" cy="11" r="8"></circle>
      <path d="m21 21-4.35-4.35"></path>
    </symbol>
    
    <!-- Cart Icon -->
    <symbol id="icon-cart" viewBox="0 0 24 24" fill="none" stroke="currentColor" stroke-width="2" stroke-linecap="round" stroke-linejoin="round">
      <circle cx="9" cy="21" r="1"></circle>
      <circle cx="20" cy="21" r="1"></circle>
      <path d="M1 1h4l2.68 13.39a2 2 0 0 0 2 1.61h9.72a2 2 0 0 0 2-1.61L23 6H6"></path>
    </symbol>
    
    <!-- User Icon -->
    <symbol id="icon-user" viewBox="0 0 24 24" fill="none" stroke="currentColor" stroke-width="2" stroke-linecap="round" stroke-linejoin="round">
      <path d="M20 21v-2a4 4 0 0 0-4-4H8a4 4 0 0 0-4 4v2"></path>
      <circle cx="12" cy="7" r="4"></circle>
    </symbol>
    
    <!-- Menu Icon -->
    <symbol id="icon-menu" viewBox="0 0 24 24" fill="none" stroke="currentColor" stroke-width="2" stroke-linecap="round" stroke-linejoin="round">
      <line x1="3" y1="6" x2="21" y2="6"></line>
      <line x1="3" y1="12" x2="21" y2="12"></line>
      <line x1="3" y1="18" x2="21" y2="18"></line>
    </symbol>
  </defs>
</svg>
