<?xml version="1.0" encoding="UTF-8" standalone="no"?>
<!DOCTYPE svg PUBLIC "-//W3C//DTD SVG 1.1//EN" "http://www.w3.org/Graphics/SVG/1.1/DTD/svg11.dtd">
<svg width="100%" height="100%" viewBox="0 0 872 191" version="1.1" xmlns="http://www.w3.org/2000/svg" xmlns:xlink="http://www.w3.org/1999/xlink" xml:space="preserve" xmlns:serif="http://www.serif.com/" style="fill-rule:evenodd;clip-rule:evenodd;stroke-linejoin:round;stroke-miterlimit:2;">
    <g transform="matrix(1,0,0,1,-4794.31,-4303.39)">
        <g>
            <g transform="matrix(0.551535,0,0,0.551535,3410.27,2897.57)">
                <g transform="matrix(2.5597,0,0,2.5597,3078.81,1835.53)">
                    <path d="M298.185,342.246C300.993,341.649 303.89,340.424 305.623,339.199C306.73,339.153 306.235,338.628 306.235,338.628C306.235,338.628 304.731,337.704 303.885,337.184C303.568,336.99 303.156,337.074 302.939,337.375C301.871,338.788 300.087,340.5 298.295,341.652C298.198,341.713 298.131,341.812 298.11,341.925C298.089,342.037 298.116,342.154 298.185,342.245C298.185,342.246 298.185,342.246 298.185,342.246ZM305.354,333.703C305.354,333.608 305.392,333.516 305.459,333.449C305.526,333.382 305.617,333.344 305.712,333.344C306.208,333.344 307.098,333.344 307.594,333.344C307.689,333.344 307.781,333.382 307.848,333.449C307.915,333.516 307.953,333.608 307.953,333.703C307.953,334.428 307.953,336.003 307.953,336.003L305.354,336.003L305.354,333.703ZM302.934,330.208C303.024,330.148 303.084,330.088 303.084,330.029L303.084,329.82L310.492,329.849L310.492,330.477L307.953,330.238L307.953,332.12C307.953,332.318 307.792,332.478 307.594,332.478C307.098,332.478 306.208,332.478 305.712,332.478C305.514,332.478 305.354,332.318 305.354,332.12C305.354,331.749 305.354,331.223 305.354,331.223C305.981,331.104 306.19,330.865 306.25,330.507L302.934,330.208ZM304.797,324.293C304.944,324.293 305.086,324.352 305.191,324.456C305.295,324.561 305.354,324.703 305.354,324.85C305.354,325.433 305.354,326.265 305.354,326.265L303.084,326.265L303.084,324.85C303.084,324.703 303.142,324.561 303.247,324.456C303.351,324.352 303.493,324.293 303.641,324.293C303.992,324.293 304.445,324.293 304.797,324.293ZM309.935,324.293C310.082,324.293 310.224,324.352 310.329,324.456C310.433,324.561 310.492,324.703 310.492,324.85C310.492,325.433 310.492,326.265 310.492,326.265L308.221,326.265L308.221,324.85C308.221,324.703 308.28,324.561 308.385,324.456C308.489,324.352 308.631,324.293 308.779,324.293C309.13,324.293 309.583,324.293 309.935,324.293ZM308.221,327.101L310.492,327.101L310.492,328.983L308.221,328.983L308.221,327.101ZM303.084,328.983L303.084,327.101L305.354,327.101L305.354,328.983L303.084,328.983ZM311.985,336.003L311.089,336.003C310.994,336.003 310.903,335.965 310.836,335.898C310.768,335.831 310.731,335.74 310.731,335.645C310.731,335.136 310.731,334.211 310.731,333.703C310.731,333.608 310.768,333.516 310.836,333.449C310.903,333.382 310.994,333.344 311.089,333.344C311.958,333.344 314.106,333.344 314.106,333.344C314.107,333.344 314.107,333.344 314.108,333.344C314.312,333.344 314.495,333.219 314.568,333.029C314.642,332.839 314.592,332.623 314.442,332.485C313.975,332.07 313.449,331.645 313.048,331.33C312.696,331.052 312.185,331.11 311.904,331.46C311.532,331.925 311.089,332.478 311.089,332.478L311.089,332.478C310.891,332.478 310.731,332.318 310.731,332.12C310.731,331.768 310.731,331.283 310.731,331.283C311.328,331.164 311.537,330.955 311.627,330.626C312.523,330.417 313.389,329.909 313.419,329.7L313.419,324.592C313.867,324.502 314.196,324.323 314.345,324.144C314.345,324.144 312.803,322.984 312.017,322.392C311.76,322.198 311.4,322.228 311.178,322.46C310.79,322.865 310.253,323.427 310.253,323.427L303.233,323.427C303.233,323.427 301.979,322.918 301.088,322.556C300.893,322.477 300.671,322.5 300.496,322.618C300.321,322.736 300.216,322.933 300.216,323.144C300.216,324.78 300.216,328.136 300.216,329.845C300.216,330.126 300.346,330.391 300.568,330.564C300.79,330.736 301.08,330.796 301.352,330.726C301.831,330.633 302.329,330.525 302.546,330.417L302.546,332.12C302.546,332.215 302.508,332.306 302.441,332.373C302.374,332.44 302.283,332.478 302.188,332.478C301.6,332.478 300.434,332.478 299.805,332.478C299.57,332.478 299.38,332.668 299.38,332.903C299.38,332.909 299.38,332.914 299.38,332.919C299.38,333.154 299.57,333.344 299.805,333.344C300.434,333.344 301.6,333.344 302.188,333.344C302.283,333.344 302.374,333.382 302.441,333.449C302.508,333.516 302.546,333.608 302.546,333.703C302.546,334.211 302.546,335.136 302.546,335.645C302.546,335.74 302.508,335.831 302.441,335.898C302.374,335.965 302.283,336.003 302.188,336.003C301.437,336.003 299.702,336.003 298.901,336.003C298.671,336.003 298.483,336.19 298.483,336.421C298.483,336.421 298.483,336.421 298.483,336.421C298.483,336.532 298.527,336.638 298.606,336.717C298.684,336.795 298.791,336.839 298.901,336.839C301.497,336.839 315.301,336.839 315.301,336.839C315.301,336.839 315.302,336.839 315.302,336.839C315.509,336.839 315.693,336.71 315.765,336.516C315.837,336.323 315.78,336.105 315.623,335.97C315.097,335.528 314.509,335.062 314.078,334.726C313.73,334.453 313.228,334.507 312.946,334.847C312.522,335.356 311.985,336.003 311.985,336.003ZM307.624,337.646C308.699,338.542 310.074,340.095 310.641,341.439C313.646,342.912 315.401,337.443 308.146,337.434C307.951,337.433 307.763,337.509 307.626,337.647C307.624,337.646 307.624,337.646 307.624,337.646ZM318.676,315.661C319.632,316.437 320.767,317.901 321.096,319.155C321.365,319.305 321.634,319.394 321.873,319.424C321.873,319.424 321.244,320.207 320.887,320.65C320.736,320.838 320.508,320.948 320.266,320.948C319.584,320.948 318.228,320.948 318.228,320.948C318.199,319.245 318.228,317.513 318.258,315.69C318.497,315.661 318.676,315.601 318.826,315.511L318.676,315.661ZM325.936,339.276C325.936,339.276 325.716,336.684 325.574,335.017C325.561,334.866 325.447,334.743 325.297,334.719C325.148,334.695 325.001,334.776 324.942,334.916C324.537,335.85 324.091,336.765 323.784,337.317C323.516,337.855 323.306,337.855 322.918,337.467C322.052,336.72 321.365,335.794 320.767,334.748C322.5,331.791 323.575,328.505 324.292,325.458C324.293,325.458 324.294,325.458 324.295,325.458C324.513,325.441 324.686,325.267 324.702,325.049C324.717,324.83 324.57,324.633 324.357,324.586C323.326,324.356 321.036,323.845 321.036,323.845C320.767,326.265 320.26,328.893 319.423,331.433C318.647,328.655 318.318,325.399 318.228,321.784L325.248,321.784C325.249,321.784 325.249,321.784 325.249,321.784C325.464,321.784 325.655,321.649 325.726,321.447C325.798,321.245 325.735,321.02 325.568,320.885C324.786,320.255 323.883,319.557 323.277,319.096C324.501,318.08 324.083,315.332 318.945,315.451C319.214,315.272 319.304,315.063 319.334,314.854C319.334,314.854 316.605,314.553 315.351,314.414C315.193,314.397 315.036,314.447 314.919,314.553C314.801,314.659 314.734,314.809 314.734,314.968C314.739,317.045 314.771,319.046 314.853,320.948L309.489,320.948C309.248,320.948 309.017,320.852 308.846,320.681C308.676,320.511 308.58,320.28 308.58,320.039L308.58,318.409L313.329,318.409C313.778,318.409 314.402,317.987 313.828,317.443C313.286,316.931 312.694,316.56 312.232,316.315C311.787,316.088 311.243,316.246 310.987,316.675C310.873,316.846 310.765,317.028 310.673,317.183C310.53,317.424 310.269,317.572 309.988,317.572C309.71,317.572 309.354,317.572 309.069,317.572C308.939,317.572 308.815,317.521 308.723,317.429C308.631,317.337 308.58,317.213 308.58,317.083C308.58,316.687 308.58,316.128 308.58,315.716C308.58,315.394 308.359,315.115 308.046,315.042C307.49,314.911 306.613,314.705 305.968,314.553C305.769,314.506 305.559,314.553 305.399,314.68C305.238,314.807 305.145,315.001 305.145,315.205L305.145,317.083C305.145,317.353 304.926,317.572 304.656,317.572C303.635,317.572 301.292,317.572 300.335,317.572C300.224,317.572 300.118,317.616 300.04,317.695C299.961,317.773 299.917,317.879 299.917,317.99C299.917,317.99 299.917,317.991 299.917,317.991C299.917,318.102 299.961,318.208 300.04,318.286C300.118,318.365 300.224,318.409 300.335,318.409C301.575,318.409 305.145,318.409 305.145,318.409L305.145,320.039C305.145,320.28 305.049,320.511 304.878,320.681C304.708,320.852 304.477,320.948 304.236,320.948C302.731,320.948 299.782,320.948 298.692,320.948C298.462,320.948 298.274,321.135 298.274,321.366C298.274,321.366 298.274,321.366 298.274,321.366C298.274,321.597 298.462,321.784 298.692,321.784C301.269,321.784 314.883,321.784 314.883,321.784C315.122,327.251 315.779,332.09 317.541,335.883C316.287,338.183 314.674,340.304 312.613,342.007L312.881,342.336C315.182,341.111 317.063,339.587 318.557,337.795C319.274,338.93 320.08,339.916 321.066,340.782C322.291,341.917 324.501,343.112 325.816,341.798C326.294,341.32 326.302,340.5 325.936,339.276Z" style="fill:rgb(79,74,71);fill-rule:nonzero;"/>
                </g>
                <g transform="matrix(1,0,0,1,-2844.99,1751.56)">
                    <path d="M6837.72,926.024C6839.46,925.561 6840.73,923.973 6840.73,922.088C6840.73,914.218 6840.73,897.773 6840.73,897.773C6840.73,897.773 6840.73,897.773 6840.74,897.772C6841.46,897.59 6842.02,897.006 6842.17,896.272C6842.32,895.537 6842.04,894.782 6841.44,894.33C6840.06,893.289 6838.39,892.021 6837.2,891.122C6836.34,890.472 6835.13,890.584 6834.4,891.38C6833.27,892.628 6831.78,894.256 6831.78,894.256L6816.03,894.256C6816.03,894.256 6812.39,892.719 6809.67,891.575C6809.03,891.304 6808.29,891.373 6807.71,891.759C6807.13,892.145 6806.78,892.796 6806.78,893.493C6806.78,905.488 6806.78,947.779 6806.78,947.779C6806.78,949.294 6806.52,950.099 6805.14,951.039C6804.23,951.684 6803.92,952.882 6804.39,953.889C6805.1,955.434 6806.1,957.583 6806.78,959.052C6806.96,959.442 6807.29,959.742 6807.7,959.883C6808.11,960.025 6808.55,959.995 6808.94,959.801C6812.78,957.186 6823.34,949.734 6825.92,947.819C6825.95,947.795 6825.97,947.754 6825.96,947.714C6825.95,947.676 6825.94,947.623 6825.92,947.562C6825.82,947.175 6825.43,946.94 6825.05,947.036C6822.57,947.647 6820.07,948.224 6817.72,948.766C6817.07,948.916 6816.39,948.762 6815.87,948.348C6815.34,947.933 6815.04,947.303 6815.04,946.637C6815.04,941.726 6815.04,931.486 6815.04,926.425C6815.04,925.64 6815.35,924.887 6815.91,924.332C6816.46,923.776 6817.22,923.464 6818,923.464C6819.65,923.464 6821.39,923.464 6821.39,923.464C6824.14,940.974 6829.64,952.443 6840.5,959.478C6841.57,955.272 6844.1,952.596 6847.15,951.755L6847.23,950.914C6840.88,948.62 6835.23,944.415 6830.79,938.833C6835.69,936.922 6840.88,934.169 6843.41,932.563C6844.71,932.946 6845.55,932.869 6846.08,932.181L6837.72,926.024ZM6797.54,892.586C6796.68,891.893 6795.42,891.998 6794.69,892.823C6794.04,893.546 6793.3,894.381 6792.78,894.952C6792.4,895.385 6791.85,895.632 6791.27,895.632C6789.72,895.632 6786.63,895.632 6785.5,895.632C6785.21,895.632 6784.93,895.573 6784.67,895.458C6783.81,895.075 6781.69,894.134 6779.89,893.336C6779.24,893.05 6778.5,893.11 6777.91,893.494C6777.32,893.878 6776.96,894.535 6776.96,895.239C6776.96,905.664 6776.96,938.618 6776.96,949.869C6776.96,950.879 6777.36,951.847 6778.08,952.561C6778.79,953.275 6779.76,953.677 6780.77,953.677C6780.83,953.677 6780.89,953.677 6780.95,953.677C6783.06,953.677 6784.76,951.972 6784.76,949.869C6784.76,949.349 6784.76,948.834 6784.76,948.363C6784.76,947.823 6784.98,947.305 6785.36,946.923C6785.74,946.541 6786.26,946.326 6786.8,946.326C6788.05,946.326 6789.65,946.326 6790.91,946.326C6791.45,946.326 6791.96,946.541 6792.35,946.923C6792.73,947.305 6792.94,947.823 6792.94,948.363C6792.94,948.694 6792.94,949.046 6792.94,949.404C6792.94,951.557 6794.69,953.302 6796.84,953.302C6796.84,953.302 6796.84,953.302 6796.84,953.302C6799,953.302 6800.74,951.557 6800.74,949.404C6800.74,936.96 6800.74,898.997 6800.74,898.997C6800.74,898.997 6800.74,898.996 6800.74,898.996C6801.44,898.85 6801.99,898.316 6802.15,897.627C6802.31,896.937 6802.07,896.215 6801.51,895.771C6800.24,894.752 6798.68,893.498 6797.54,892.586ZM6786.8,944.109C6786.26,944.109 6785.74,943.894 6785.36,943.512C6784.98,943.131 6784.76,942.612 6784.76,942.072C6784.76,938.107 6784.76,929.734 6784.76,929.734L6792.94,929.734L6792.94,942.072C6792.94,942.612 6792.73,943.131 6792.35,943.512C6791.96,943.894 6791.45,944.109 6790.91,944.109L6786.8,944.109ZM6837.63,926.053C6837.31,926.147 6836.98,926.19 6836.63,926.19C6835.24,926.19 6833.85,926.19 6833.1,926.19C6832.8,926.19 6832.55,925.942 6832.55,925.636C6832.55,925.635 6832.55,925.635 6832.55,925.634C6832.55,924.436 6831.58,923.464 6830.38,923.464L6822.76,923.464C6824.29,928.511 6826.59,933.175 6829.49,937.151C6832.6,933.512 6836.01,928.67 6837.63,926.053L6837.72,926.024L6837.67,925.988L6837.63,926.053ZM6792.94,927.517L6784.76,927.517L6784.76,913.448L6792.94,913.448L6792.94,927.517ZM6819.15,907.408C6818.86,907.408 6818.58,907.523 6818.37,907.729C6818.16,907.935 6818.05,908.215 6818.05,908.506C6818.05,908.513 6818.05,908.52 6818.05,908.526C6818.05,908.818 6818.16,909.097 6818.37,909.303C6818.58,909.509 6818.86,909.625 6819.15,909.625C6822.53,909.625 6832.55,909.625 6832.55,909.625C6832.55,909.625 6832.55,914.843 6832.55,918.286C6832.55,919.071 6832.24,919.825 6831.68,920.38C6831.13,920.935 6830.37,921.247 6829.59,921.247C6826.36,921.247 6821.23,921.247 6818,921.247C6817.22,921.247 6816.46,920.935 6815.91,920.38C6815.35,919.825 6815.04,919.071 6815.04,918.286C6815.04,914.843 6815.04,902.619 6815.04,899.358C6815.04,898.573 6815.35,897.82 6815.91,897.264C6816.46,896.709 6817.22,896.397 6818,896.397C6821.23,896.397 6826.36,896.397 6829.59,896.397C6830.37,896.397 6831.13,896.709 6831.68,897.264C6832.24,897.82 6832.55,898.573 6832.55,899.358C6832.55,902.619 6832.55,907.408 6832.55,907.408L6819.15,907.408ZM6790.91,897.773C6791.45,897.773 6791.96,897.988 6792.35,898.37C6792.73,898.752 6792.94,899.27 6792.94,899.81C6792.94,903.589 6792.94,911.307 6792.94,911.307L6784.76,911.307L6784.76,899.81C6784.76,899.27 6784.98,898.752 6785.36,898.37C6785.74,897.988 6786.26,897.773 6786.8,897.773C6788.05,897.773 6789.65,897.773 6790.91,897.773Z" style="fill:rgb(79,74,71);"/>
                </g>
                <g transform="matrix(1,0,0,1,-2844.26,1751.56)">
                    <path d="M6931.98,942.886L6931.13,942.886C6930.06,946.326 6929.07,949.461 6928.53,950.455C6928.07,950.991 6927.77,951.143 6927.16,951.143L6922.49,951.143C6921.35,951.143 6921.12,950.914 6921.12,950.073L6921.12,939.674L6921.42,939.674C6923.95,939.674 6928,938.298 6928.07,937.763L6928.07,923.159C6928.08,923.158 6928.08,923.158 6928.08,923.158C6928.73,923.054 6929.26,922.57 6929.42,921.927C6929.58,921.285 6929.34,920.61 6928.81,920.214C6927.63,919.336 6926.18,918.246 6925.02,917.382C6923.89,916.534 6922.3,916.672 6921.33,917.702C6920.34,918.752 6919.28,919.871 6919.28,919.871L6903.84,919.871C6903.84,919.871 6901.32,918.87 6899.01,917.948C6898.15,917.607 6897.18,917.713 6896.42,918.23C6895.65,918.748 6895.2,919.611 6895.2,920.534C6895.2,927.318 6895.2,940.133 6895.2,940.133L6896.34,940.133C6897.74,940.133 6898.56,939.823 6899.48,939.439C6899.68,939.355 6899.9,939.38 6900.08,939.503C6900.26,939.627 6900.36,939.833 6900.35,940.049C6900.02,948.535 6898.92,954.382 6884.42,959.095L6885.1,960.242C6907.51,955.884 6909.42,948.467 6909.95,936.692L6913.16,936.692L6913.16,951.908C6913.16,956.878 6913.93,958.484 6919.82,958.484L6924.02,958.484C6931.9,958.484 6934.42,956.955 6934.42,953.973C6934.42,952.52 6934.12,951.526 6932.2,950.608L6931.98,942.886ZM6893.9,943.803C6889.61,944.568 6885.41,945.332 6881.43,946.021L6881.43,927.081C6881.43,926.304 6881.74,925.559 6882.29,925.01C6882.84,924.461 6883.59,924.153 6884.36,924.153C6887.44,924.153 6891.83,924.153 6891.83,924.153C6892.9,924.153 6893.67,923.77 6893.9,922.929C6891.3,920.253 6886.94,916.354 6886.94,916.354L6882.96,921.935L6881.43,921.935L6881.43,914.47C6881.43,913.671 6881.75,912.906 6882.32,912.341C6882.88,911.777 6883.65,911.46 6884.44,911.46C6886.75,911.46 6889.54,911.46 6889.54,911.46C6890.61,911.46 6891.37,911.078 6891.6,910.237C6890.14,908.853 6888.2,907.187 6886.7,905.932C6886.11,905.433 6885.34,905.198 6884.57,905.281C6883.81,905.364 6883.11,905.759 6882.64,906.373C6881.58,907.756 6880.44,909.243 6880.44,909.243L6869.51,909.243C6873.86,904.502 6877.61,898.997 6880.06,894.027C6882.89,897.544 6885.03,901.596 6885.94,904.349C6889.39,907.255 6893.82,904.655 6893.44,900.908L6916.61,900.908C6916.06,903.539 6915.26,907.002 6914.45,910.004C6914.11,911.27 6912.95,912.147 6911.64,912.147C6905.89,912.148 6890.91,912.148 6890.91,912.148L6891.45,914.289L6932.52,914.289C6933.06,914.289 6933.55,913.952 6933.74,913.443C6933.93,912.933 6933.79,912.358 6933.38,911.997C6932.11,910.886 6930.69,909.723 6929.52,908.779C6928.86,908.247 6928.02,908 6927.18,908.094C6926.34,908.188 6925.58,908.614 6925.06,909.278C6923.96,910.677 6922.8,912.148 6922.8,912.148L6918.75,912.148C6918.35,912.148 6917.99,911.898 6917.84,911.52C6917.7,911.142 6917.81,910.714 6918.11,910.447C6920.27,908.515 6922.34,906.489 6923.87,904.961C6925.48,904.961 6926.39,904.349 6926.7,903.432L6917.52,900.908L6930.29,900.908C6931.36,900.908 6932.13,900.526 6932.28,899.685C6930.86,898.267 6928.92,896.544 6927.36,895.208C6926.71,894.634 6925.84,894.36 6924.97,894.449C6924.1,894.539 6923.31,894.985 6922.79,895.681C6921.67,897.152 6920.51,898.691 6920.51,898.691L6892.6,898.691C6891.15,896.397 6887.63,893.95 6880.82,892.345C6882.89,892.115 6883.65,891.58 6883.88,890.586C6883.88,890.586 6878.45,889.325 6874.94,888.51C6874.18,888.332 6873.37,888.47 6872.71,888.892C6872.04,889.314 6871.58,889.984 6871.41,890.753C6869.63,898.388 6865.82,908.866 6861.71,915.13L6862.55,915.665C6864.15,914.366 6865.76,912.989 6867.36,911.46L6870.62,911.46C6872.29,911.46 6873.64,912.807 6873.64,914.47C6873.64,917.565 6873.64,921.935 6873.64,921.935L6862.78,921.935L6863.39,924.153L6870.71,924.153C6871.48,924.153 6872.23,924.461 6872.78,925.01C6873.33,925.559 6873.64,926.304 6873.64,927.081C6873.64,933.312 6873.64,947.32 6873.64,947.32C6870.68,947.789 6868.04,948.172 6865.91,948.469C6865.1,948.581 6864.39,949.06 6863.97,949.767C6863.56,950.474 6863.49,951.333 6863.78,952.097C6864.32,953.476 6864.94,955.052 6865.42,956.274C6865.82,957.313 6866.96,957.865 6868.02,957.541C6873.46,955.004 6889.42,947.183 6894.13,944.797L6893.9,943.803ZM6883.73,942.809C6886.56,939.521 6889.08,935.01 6891.07,930.728C6891.07,930.728 6891.08,930.728 6891.09,930.728C6891.68,930.725 6892.18,930.291 6892.26,929.706C6892.35,929.121 6892,928.561 6891.43,928.387C6890.37,928.058 6889.1,927.667 6887.95,927.311C6887.15,927.065 6886.28,927.192 6885.58,927.657C6884.89,928.123 6884.44,928.877 6884.36,929.711C6883.92,934.277 6883.24,938.995 6882.5,942.35L6883.73,942.809ZM6907.38,927.135C6907.08,927.135 6906.8,927.251 6906.6,927.458C6906.39,927.665 6906.27,927.946 6906.27,928.239C6906.27,928.242 6906.27,928.245 6906.27,928.248C6906.27,928.541 6906.39,928.821 6906.6,929.029C6906.8,929.236 6907.08,929.352 6907.38,929.352C6910.65,929.352 6920.05,929.352 6920.05,929.352L6920.05,934.475L6903.38,934.475L6903.38,924.43C6903.38,923.094 6904.46,922.012 6905.8,922.012C6908.96,922.012 6914.47,922.012 6917.63,922.012C6918.96,922.012 6920.05,923.094 6920.05,924.43C6920.05,925.756 6920.05,927.135 6920.05,927.135L6907.38,927.135ZM6898.97,901.835C6898.88,901.892 6898.82,901.98 6898.81,902.081C6898.79,902.181 6898.81,902.285 6898.87,902.369C6901.83,906.349 6900.24,907.866 6901.52,909.777C6905.17,915.235 6915.23,904.731 6899.33,901.596C6899.33,901.596 6899.15,901.717 6898.97,901.835ZM6904.68,889.057C6906.28,891.045 6907.89,894.256 6907.89,897.315C6914.92,902.667 6922.95,889.821 6905.37,888.674L6904.68,889.057Z" style="fill:rgb(79,74,71);"/>
                </g>
                <g transform="matrix(1,0,0,1,-2844.52,1751.67)">
                    <path d="M6654.49,932.655C6654.12,932.463 6653.79,932.212 6653.38,932.222C6652.96,932.232 6652.57,932.407 6652.28,932.708C6651.37,933.667 6650.13,934.982 6649.52,935.622C6649.29,935.866 6648.97,936.004 6648.64,936.004C6645.83,936.004 6632.79,936.004 6632.79,936.004C6633.4,935.392 6633.86,934.704 6634.4,934.093C6635.77,934.245 6636.61,933.787 6637,933.099L6627.13,930.04C6627.82,930.117 6628.51,930.117 6629.35,930.117L6637.76,930.117C6650.53,930.117 6653.51,928.74 6653.51,925.605C6653.51,924.397 6651.16,919.065 6650.58,917.78C6650.51,917.61 6650.34,917.501 6650.15,917.501C6650.1,917.5 6650.05,917.5 6650,917.5C6649.81,917.501 6649.64,917.612 6649.57,917.785C6648.55,920.161 6647.68,921.888 6647.01,922.623C6646.63,923.082 6646.02,923.235 6645.1,923.235C6644.11,923.312 6641.51,923.312 6638.45,923.312L6630.8,923.312C6628.28,923.312 6628.05,923.159 6628.05,922.241C6628.05,922.241 6628.05,919.069 6628.05,916.826C6628.05,915.565 6627.15,914.484 6625.91,914.255C6624.66,914.024 6623.12,913.74 6622.04,913.541C6621.71,913.48 6621.37,913.569 6621.12,913.782C6620.86,913.996 6620.71,914.313 6620.71,914.648C6620.71,917.495 6620.71,923.847 6620.71,923.847C6620.71,927.899 6621.55,929.505 6625.91,929.964C6624.53,932.793 6622.39,935.775 6619.79,938.68C6617.65,936.998 6615.74,935.163 6614.21,933.099L6613.29,933.787C6614.67,936.31 6616.2,938.68 6617.96,940.745C6614.51,944.34 6610.64,947.654 6606.68,950.078C6606.41,950.246 6606.32,950.604 6606.48,950.883C6606.48,950.89 6606.49,950.897 6606.49,950.903C6606.62,951.136 6606.9,951.248 6607.16,951.177C6612.14,949.784 6617.18,947.471 6621.7,944.797C6624.46,947.32 6627.52,949.461 6630.96,951.296C6623.18,954.962 6613.79,957.456 6603.65,959.137C6603.48,959.166 6603.32,959.267 6603.23,959.414C6603.13,959.562 6603.1,959.743 6603.15,959.913C6603.18,960.043 6603.22,960.167 6603.24,960.256C6603.26,960.338 6603.34,960.393 6603.42,960.389C6616.13,959.846 6627.63,957.935 6637.07,954.202C6644.39,957.172 6652.88,958.976 6662.07,960.132C6663.04,960.253 6664,959.879 6664.63,959.138C6666.39,957.042 6668.07,954.759 6670.49,951.832L6670.49,951.695C6670.49,951.262 6670.14,950.907 6669.71,950.898C6662.09,950.725 6654.49,950.186 6647.4,949.003C6651.09,946.612 6656.17,941.944 6659.1,938.469C6659.39,938.12 6659.8,937.893 6660.25,937.832C6660.28,937.839 6660.31,937.836 6660.34,937.832C6660.83,937.761 6661.21,937.38 6661.29,936.893C6661.36,936.406 6661.11,935.926 6660.67,935.709C6658.54,934.666 6655.48,933.17 6654.49,932.655ZM6645.27,938.221C6645.74,938.221 6646.17,938.495 6646.37,938.924C6646.58,939.353 6646.51,939.86 6646.21,940.225C6644.03,942.777 6641.42,945.08 6638.37,947.091C6633.63,945.868 6629.28,944.262 6625.53,942.274C6627.36,940.974 6628.97,939.598 6630.5,938.221L6645.27,938.221ZM6616.39,914.366C6616.03,914.366 6615.72,914.648 6615.69,915.013C6615.36,917.904 6612.81,920.562 6610.47,921.629C6608.25,922.623 6606.64,924.535 6607.33,926.982C6608.17,929.505 6611.46,930.117 6613.75,929.046C6617.12,927.4 6619.54,922.236 6617.06,914.847C6616.96,914.562 6616.69,914.369 6616.39,914.369C6616.39,914.366 6616.39,914.366 6616.39,914.366ZM6659.8,911.536C6660.22,911.536 6660.61,911.717 6660.88,912.032C6661.15,912.347 6661.27,912.763 6661.21,913.174C6661.01,914.26 6660.74,915.523 6660.52,916.548C6660.44,916.954 6660.57,917.374 6660.88,917.65C6661.19,917.926 6661.63,918.016 6662.02,917.886C6664.19,917.116 6667.88,915.625 6671.48,913.294C6671.85,913.056 6672.01,912.603 6672.03,912.166C6672.04,911.728 6671.87,911.305 6671.55,911.005C6670.47,909.982 6668.94,908.538 6667.64,907.318C6666.25,906.008 6664.06,906.05 6662.73,907.413C6662.41,907.729 6662.2,908.039 6662.07,908.315C6661.81,908.921 6661.21,909.314 6660.56,909.314C6657.16,909.396 6647.86,909.396 6647.86,909.396C6652.06,906.872 6656.49,903.661 6659.17,901.138C6660.85,901.367 6661.77,900.908 6662.23,899.991L6651.98,896.168C6654.74,896.015 6657.34,895.709 6659.71,895.48C6661.92,896.474 6663.61,896.474 6664.45,895.862C6664.45,895.862 6660.71,891.932 6658.6,889.707C6657.73,888.787 6656.42,888.42 6655.19,888.753C6644.12,891.622 6625.41,894.698 6610.26,896.03C6610.07,896.046 6609.9,896.137 6609.78,896.283C6609.66,896.428 6609.61,896.616 6609.63,896.802C6609.64,896.845 6609.64,896.888 6609.65,896.93C6609.68,897.195 6609.9,897.397 6610.16,897.404C6623.81,897.761 6639.2,897.227 6651.45,896.244C6650.07,900.144 6647.86,905.496 6645.56,909.396L6610.16,909.396C6609.88,908.201 6609.4,906.878 6608.8,905.544C6608.7,905.331 6608.48,905.201 6608.24,905.218C6608.22,905.219 6608.2,905.221 6608.17,905.223C6608.02,905.234 6607.87,905.31 6607.77,905.433C6607.68,905.556 6607.63,905.714 6607.66,905.868C6608.08,909.094 6606.75,912.703 6604.73,913.677C6602.51,914.748 6600.98,916.736 6601.75,919.259C6602.74,921.782 6605.95,922.394 6608.02,920.941C6610.16,919.641 6611.46,916.201 6610.69,911.536L6659.8,911.536ZM6631.34,912.31C6631.19,912.412 6631.09,912.578 6631.07,912.762C6631.05,912.946 6631.11,913.129 6631.24,913.262C6632.85,914.975 6634.49,917.478 6635.32,919.931C6635.6,920.896 6636.27,921.698 6637.18,922.139C6638.08,922.579 6639.13,922.616 6640.06,922.241C6644,920.651 6644.5,912.999 6631.48,912.272C6631.43,912.269 6631.38,912.282 6631.34,912.309C6631.34,912.309 6631.34,912.309 6631.34,912.31ZM6614.68,898.387C6614.55,898.463 6614.45,898.595 6614.42,898.748C6614.39,898.901 6614.42,899.06 6614.52,899.183C6616.14,901.365 6617.66,904.742 6617.73,907.79C6624.22,913.062 6631.79,900.848 6614.86,898.314C6614.84,898.31 6614.81,898.314 6614.79,898.325C6614.77,898.339 6614.73,898.361 6614.68,898.387ZM6630.33,897.672C6630.18,897.758 6630.06,897.903 6630.02,898.074C6629.98,898.244 6630.01,898.425 6630.1,898.573C6631.58,900.957 6632.94,904.454 6632.94,907.56C6639.36,913.138 6647.31,900.849 6630.46,897.627C6630.44,897.623 6630.41,897.627 6630.39,897.638C6630.37,897.647 6630.35,897.658 6630.33,897.672Z" style="fill:rgb(79,74,71);fill-rule:nonzero;"/>
                </g>
                <g transform="matrix(1,0,0,1,-3050.67,1743.09)">
                    <circle cx="6870.1" cy="935.323" r="5.483" style="fill:rgb(79,74,71);"/>
                </g>
                <g transform="matrix(1,0,0,1,-2849.21,1756.98)">
                    <circle cx="6870.1" cy="935.323" r="5.483" style="fill:rgb(79,74,71);"/>
                </g>
            </g>
            <g transform="matrix(1.11112,0,0,1.11112,588.356,1265.75)">
                <g transform="matrix(2.44595,0,0,2.35474,4271.24,1668.95)">
                    <path d="M0.546,520.599C0.29,520.599 0.044,520.494 -0.137,520.306C-0.318,520.117 -0.42,519.862 -0.42,519.596C-0.42,519.596 -0.42,519.596 -0.42,519.596C-0.42,519.009 -0.018,518.504 0.538,518.395C0.622,518.378 0.707,518.362 0.794,518.345C1.631,518.18 2.325,517.574 2.626,516.746C4.168,512.491 8.966,499.259 10.611,494.72C10.949,493.789 11.806,493.173 12.763,493.173C12.763,493.173 12.763,493.173 12.764,493.173C13.729,493.173 14.597,493.787 14.95,494.72C16.658,499.227 21.613,512.299 23.244,516.603C23.573,517.471 24.303,518.108 25.183,518.295C25.321,518.324 25.457,518.353 25.588,518.381C26.145,518.499 26.544,519.007 26.544,519.597C26.544,519.597 26.544,519.597 26.544,519.597C26.544,520.151 26.112,520.599 25.579,520.599C23.517,520.599 18.698,520.599 16.633,520.599C16.099,520.599 15.666,520.15 15.666,519.595L15.666,519.233C15.666,518.86 15.929,518.543 16.284,518.488C16.285,518.488 16.285,518.488 16.285,518.488C16.995,518.378 17.619,517.94 17.982,517.298C18.346,516.655 18.41,515.876 18.157,515.179C17.717,513.967 17.304,512.829 17.304,512.829L7.35,512.829C7.35,512.829 6.96,513.98 6.547,515.199C6.31,515.899 6.386,516.672 6.754,517.308C7.122,517.943 7.744,518.375 8.45,518.486C8.45,518.486 8.45,518.486 8.451,518.486C8.808,518.542 9.072,518.861 9.072,519.236C9.072,519.351 9.072,519.474 9.072,519.596C9.072,519.862 8.97,520.117 8.789,520.306C8.608,520.494 8.362,520.599 8.106,520.599C6.286,520.599 2.366,520.599 0.546,520.599ZM8.274,510.141L16.338,510.141L12.39,498.507L12.096,498.507L8.274,510.141Z" style="fill:rgb(79,74,71);fill-rule:nonzero;"/>
                </g>
                <g transform="matrix(2.44595,0,0,2.35474,4468.32,1668.95)">
                    <path d="M0.546,520.599C0.29,520.599 0.044,520.494 -0.137,520.306C-0.318,520.117 -0.42,519.862 -0.42,519.596C-0.42,519.596 -0.42,519.596 -0.42,519.596C-0.42,519.009 -0.018,518.504 0.538,518.395C0.622,518.378 0.707,518.362 0.794,518.345C1.631,518.18 2.325,517.574 2.626,516.746C4.168,512.491 8.966,499.259 10.611,494.72C10.949,493.789 11.806,493.173 12.763,493.173C12.763,493.173 12.763,493.173 12.764,493.173C13.729,493.173 14.597,493.787 14.95,494.72C16.658,499.227 21.613,512.299 23.244,516.603C23.573,517.471 24.303,518.108 25.183,518.295C25.321,518.324 25.457,518.353 25.588,518.381C26.145,518.499 26.544,519.007 26.544,519.597C26.544,519.597 26.544,519.597 26.544,519.597C26.544,520.151 26.112,520.599 25.579,520.599C23.517,520.599 18.698,520.599 16.633,520.599C16.099,520.599 15.666,520.15 15.666,519.595L15.666,519.233C15.666,518.86 15.929,518.543 16.284,518.488C16.285,518.488 16.285,518.488 16.285,518.488C16.995,518.378 17.619,517.94 17.982,517.298C18.346,516.655 18.41,515.876 18.157,515.179C17.717,513.967 17.304,512.829 17.304,512.829L7.35,512.829C7.35,512.829 6.96,513.98 6.547,515.199C6.31,515.899 6.386,516.672 6.754,517.308C7.122,517.943 7.744,518.375 8.45,518.486C8.45,518.486 8.45,518.486 8.451,518.486C8.808,518.542 9.072,518.861 9.072,519.236C9.072,519.351 9.072,519.474 9.072,519.596C9.072,519.862 8.97,520.117 8.789,520.306C8.608,520.494 8.362,520.599 8.106,520.599C6.286,520.599 2.366,520.599 0.546,520.599ZM8.274,510.141L16.338,510.141L12.39,498.507L12.096,498.507L8.274,510.141Z" style="fill:rgb(79,74,71);fill-rule:nonzero;"/>
                </g>
                <g transform="matrix(2.44595,0,0,2.35474,4276.74,1668.95)">
                    <path d="M29.107,520.599C28.851,520.599 28.605,520.494 28.423,520.305C28.242,520.117 28.14,519.861 28.14,519.595L28.14,519.239C28.14,518.859 28.4,518.532 28.76,518.461C28.761,518.461 28.761,518.461 28.761,518.461C30.374,518.142 31.542,516.677 31.542,514.971C31.542,510.795 31.542,503.188 31.542,499.012C31.542,497.306 30.374,495.841 28.761,495.522C28.761,495.522 28.761,495.522 28.76,495.522C28.4,495.451 28.14,495.124 28.14,494.743C28.14,494.63 28.14,494.509 28.14,494.388C28.14,494.122 28.242,493.866 28.423,493.678C28.605,493.489 28.851,493.383 29.107,493.383L38.345,493.383C38.601,493.383 38.847,493.489 39.029,493.678C39.21,493.866 39.312,494.122 39.312,494.388L39.312,494.743C39.312,495.124 39.051,495.451 38.691,495.522C38.691,495.522 38.691,495.522 38.691,495.522C37.077,495.841 35.91,497.306 35.91,499.012C35.91,503.188 35.91,510.795 35.91,514.971C35.91,516.677 37.077,518.142 38.691,518.461C38.691,518.461 38.691,518.461 38.691,518.461C39.051,518.532 39.312,518.859 39.312,519.239C39.312,519.353 39.312,519.474 39.312,519.595C39.312,519.861 39.21,520.117 39.029,520.305C38.847,520.494 38.601,520.599 38.345,520.599L29.107,520.599Z" style="fill:rgb(79,74,71);fill-rule:nonzero;"/>
                </g>
                <g transform="matrix(2.44595,0,0,2.35474,4473.82,1668.95)">
                    <path d="M29.107,520.599C28.851,520.599 28.605,520.494 28.423,520.305C28.242,520.117 28.14,519.861 28.14,519.595L28.14,519.239C28.14,518.859 28.4,518.532 28.76,518.461C28.761,518.461 28.761,518.461 28.761,518.461C30.374,518.142 31.542,516.677 31.542,514.971C31.542,510.795 31.542,503.188 31.542,499.012C31.542,497.306 30.374,495.841 28.761,495.522C28.761,495.522 28.761,495.522 28.76,495.522C28.4,495.451 28.14,495.124 28.14,494.743C28.14,494.63 28.14,494.509 28.14,494.388C28.14,494.122 28.242,493.866 28.423,493.678C28.605,493.489 28.851,493.383 29.107,493.383L38.345,493.383C38.601,493.383 38.847,493.489 39.029,493.678C39.21,493.866 39.312,494.122 39.312,494.388L39.312,494.743C39.312,495.124 39.051,495.451 38.691,495.522C38.691,495.522 38.691,495.522 38.691,495.522C37.077,495.841 35.91,497.306 35.91,499.012C35.91,503.188 35.91,510.795 35.91,514.971C35.91,516.677 37.077,518.142 38.691,518.461C38.691,518.461 38.691,518.461 38.691,518.461C39.051,518.532 39.312,518.859 39.312,519.239C39.312,519.353 39.312,519.474 39.312,519.595C39.312,519.861 39.21,520.117 39.029,520.305C38.847,520.494 38.601,520.599 38.345,520.599L29.107,520.599Z" style="fill:rgb(79,74,71);fill-rule:nonzero;"/>
                </g>
                <g transform="matrix(2.44595,0,0,2.35474,4255.28,1668.95)">
                    <path d="M60.64,520.599C60.111,520.599 59.682,520.154 59.682,519.604C59.682,519.604 59.682,519.604 59.682,519.603C59.682,519.035 60.068,518.545 60.605,518.434C61.625,518.222 63.126,517.911 63.126,517.911L63.126,496.113C63.126,496.113 61.625,495.784 60.605,495.56C60.067,495.442 59.682,494.948 59.682,494.377C59.682,494.377 59.682,494.376 59.682,494.376C59.682,493.828 60.11,493.383 60.637,493.383C63.563,493.383 72.198,493.383 72.198,493.383C76.342,493.383 79.59,494.475 81.942,496.659C84.294,498.843 85.47,502.105 85.47,506.445C85.47,509.441 84.91,511.996 83.79,514.11C82.67,516.224 81.025,517.834 78.855,518.94C76.685,520.046 74.032,520.599 70.896,520.599L60.64,520.599ZM70.812,518.079C72.548,518.079 74.032,517.876 75.264,517.47C76.496,517.064 77.49,516.399 78.246,515.475C79.002,514.551 79.562,513.34 79.926,511.842C80.29,510.344 80.472,508.531 80.472,506.403C80.472,504.471 80.262,502.847 79.842,501.531C79.422,500.215 78.806,499.151 77.994,498.339C77.182,497.527 76.188,496.939 75.012,496.575C73.836,496.211 72.478,496.029 70.938,496.029C70.238,496.029 69.601,496.05 69.027,496.092C69.026,496.092 69.026,496.092 69.026,496.092C68.139,496.157 67.452,496.924 67.452,497.847C67.452,501.857 67.452,512.456 67.452,516.336C67.452,517.202 68.09,517.923 68.921,517.995C68.921,517.995 68.922,517.995 68.922,517.995C69.566,518.051 70.196,518.079 70.812,518.079Z" style="fill:rgb(79,74,71);fill-rule:nonzero;"/>
                </g>
                <g transform="matrix(2.61481,0,0,2.22541,-7980.88,-1740.91)">
                    <path d="M4734.24,2073.45C4734.24,2073.07 4734.11,2072.7 4733.88,2072.44C4733.64,2072.17 4733.32,2072.02 4732.98,2072.02C4731.45,2072.02 4728.87,2072.02 4727.33,2072.02C4727,2072.02 4726.68,2072.17 4726.44,2072.44C4726.21,2072.7 4726.07,2073.07 4726.07,2073.45C4726.07,2073.45 4726.07,2073.45 4726.07,2073.45C4726.07,2073.82 4726.21,2074.18 4726.44,2074.45C4726.68,2074.72 4727,2074.87 4727.33,2074.87C4728.87,2074.87 4731.45,2074.87 4732.98,2074.87C4733.32,2074.87 4733.64,2074.72 4733.88,2074.45C4734.11,2074.18 4734.24,2073.82 4734.24,2073.45C4734.24,2073.45 4734.24,2073.45 4734.24,2073.45Z" style="fill:rgb(79,74,71);"/>
                </g>
            </g>
            <g transform="matrix(1.82751,0,0,1.82751,5129.81,4318.93)">
                <path d="M0,87.405C-20.807,75.392 -26.378,46.087 -12.443,21.951C1.492,-2.185 29.656,-12.013 50.463,0C71.271,12.013 76.842,41.318 62.906,65.454C48.971,89.59 20.807,99.418 0,87.405M-30.524,84.595C-33.549,84.595 -34.202,81.479 -31.983,77.635L-23.379,62.771C-21.891,66.56 -19.971,70.131 -17.683,73.428C-20.941,79.691 -26.499,84.595 -30.524,84.595M-40.47,77.319L-40.653,77.635C-40.675,77.674 -40.692,77.711 -40.714,77.75C-44.32,83.943 -49.641,88.946 -52.64,88.946C-55.658,88.946 -55.181,83.882 -51.574,77.635C-47.967,71.388 -42.597,66.324 -39.579,66.324C-36.613,66.324 -37.03,71.219 -40.47,77.319M-156.611,87.405C-177.418,75.392 -182.989,46.087 -169.054,21.951C-155.119,-2.185 -126.954,-12.013 -106.147,0C-85.34,12.013 -79.769,41.318 -93.704,65.454C-107.639,89.59 -135.804,99.418 -156.611,87.405M99.751,73.284C96.505,79.615 90.895,84.595 86.84,84.595C83.815,84.595 83.162,81.479 85.381,77.635L91.601,66.905C91.75,66.647 91.564,66.324 91.266,66.324L82.567,66.324L82.567,67.484L76.711,77.635C76.331,78.293 76.017,78.935 75.738,79.566C72.927,82.611 69.757,84.595 67.202,84.595C64.177,84.595 63.524,81.479 65.743,77.635L72.288,66.335C75.587,59.488 77.435,51.811 77.435,43.702C77.435,14.871 54.063,-8.501 25.232,-8.501C-3.599,-8.501 -26.972,14.871 -26.972,43.702C-26.972,46.746 -26.708,49.728 -26.208,52.63L-34.667,67.272C-35.46,65.942 -36.888,65.164 -38.909,65.164C-44.992,65.164 -52.116,68.545 -56.859,73.284L-56.86,73.284L-56.86,73.285C-58.217,74.641 -59.39,76.102 -60.275,77.635C-60.649,78.283 -60.961,78.92 -61.211,79.542C-64.027,82.604 -67.209,84.595 -69.771,84.595C-72.796,84.595 -73.449,81.479 -71.23,77.635L-65.01,66.905C-64.861,66.647 -65.047,66.324 -65.345,66.324L-74.043,66.324L-74.043,67.484L-79.9,77.635C-80.28,78.293 -80.593,78.935 -80.873,79.566C-83.683,82.611 -86.854,84.595 -89.408,84.595C-92.434,84.595 -93.087,81.479 -90.867,77.635L-84.323,66.335C-81.024,59.488 -79.175,51.811 -79.175,43.702C-79.175,14.871 -102.548,-8.501 -131.379,-8.501C-160.21,-8.501 -183.583,14.871 -183.583,43.702C-183.583,72.534 -160.21,95.906 -131.379,95.906C-120.25,95.906 -109.942,92.414 -101.47,86.48C-100.821,88.72 -98.945,90.106 -95.989,90.106C-91.704,90.106 -86.117,87.046 -81.887,82.667C-82.747,87.046 -80.743,90.106 -76.352,90.106C-71.964,90.106 -66.209,86.899 -61.946,82.351C-62.46,86.899 -59.237,90.106 -53.31,90.106C-50.164,90.106 -46.281,88.218 -42.797,85.294C-42.518,88.218 -40.549,90.106 -37.104,90.106C-31.312,90.106 -23.133,84.522 -19.156,77.635C-18.374,76.281 -17.813,74.981 -17.452,73.761C-8.002,87.156 7.592,95.906 25.232,95.906C36.36,95.906 46.668,92.414 55.14,86.48C55.79,88.72 57.666,90.106 60.621,90.106C64.907,90.106 70.494,87.046 74.724,82.667C73.864,87.046 75.868,90.106 80.259,90.106C86.051,90.106 94.231,84.522 98.207,77.635C99.092,76.103 99.696,74.639 100.043,73.284L99.751,73.284ZM-62.996,60.234C-60.593,60.234 -58.645,58.286 -58.645,55.883C-58.645,53.481 -60.593,51.533 -62.996,51.533C-65.398,51.533 -67.346,53.481 -67.346,55.883C-67.346,58.286 -65.398,60.234 -62.996,60.234M93.615,60.234C96.018,60.234 97.965,58.286 97.965,55.883C97.965,53.481 96.018,51.533 93.615,51.533C91.213,51.533 89.265,53.481 89.265,55.883C89.265,58.286 91.213,60.234 93.615,60.234" style="fill:rgb(79,74,71);fill-rule:nonzero;"/>
            </g>
        </g>
    </g>
</svg>
