<!-- Social Media Icons (symbol sprite) -->
<svg xmlns="http://www.w3.org/2000/svg" style="display: none;">
  <symbol id="social-icon-envelope" viewBox="0 0 640 640">
    <path d="M112 128C85.5 128 64 149.5 64 176C64 191.1 71.1 205.3 83.2 214.4L291.2 370.4C308.3 383.2 331.7 383.2 348.8 370.4L556.8 214.4C568.9 205.3 576 191.1 576 176C576 149.5 554.5 128 528 128L112 128zM64 260L64 448C64 483.3 92.7 512 128 512L512 512C547.3 512 576 483.3 576 448L576 260L377.6 408.8C343.5 434.4 296.5 434.4 262.4 408.8L64 260z"/>
  </symbol>

  <symbol id="social-icon-line" viewBox="0 0 640 640">
    <path fill="#06c755" d="M375 260.8L375 342.1C375 344.2 373.4 345.8 371.3 345.8L358.3 345.8C357 345.8 355.9 345.1 355.3 344.3L318 294L318 342.2C318 344.3 316.4 345.9 314.3 345.9L301.3 345.9C299.2 345.9 297.6 344.3 297.6 342.2L297.6 260.9C297.6 258.8 299.2 257.2 301.3 257.2L314.2 257.2C315.3 257.2 316.6 257.8 317.2 258.8L354.5 309.1L354.5 260.9C354.5 258.8 356.1 257.2 358.2 257.2L371.2 257.2C373.3 257.1 375 258.8 375 260.7L375 260.8zM281.3 257.1L268.3 257.1C266.2 257.1 264.6 258.7 264.6 260.8L264.6 342.1C264.6 344.2 266.2 345.8 268.3 345.8L281.3 345.8C283.4 345.8 285 344.2 285 342.1L285 260.8C285 258.9 283.4 257.1 281.3 257.1zM249.9 325.2L214.3 325.2L214.3 260.8C214.3 258.7 212.7 257.1 210.6 257.1L197.6 257.1C195.5 257.1 193.9 258.7 193.9 260.8L193.9 342.1C193.9 343.1 194.2 343.9 194.9 344.6C195.6 345.2 196.4 345.6 197.4 345.6L249.6 345.6C251.7 345.6 253.3 344 253.3 341.9L253.3 328.9C253.3 327 251.7 325.2 249.8 325.2L249.9 325.2zM443.6 257.1L391.3 257.1C389.4 257.1 387.6 258.7 387.6 260.8L387.6 342.1C387.6 344 389.2 345.8 391.3 345.8L443.5 345.8C445.6 345.8 447.2 344.2 447.2 342.1L447.2 329C447.2 326.9 445.6 325.3 443.5 325.3L408 325.3L408 311.7L443.5 311.7C445.6 311.7 447.2 310.1 447.2 308L447.2 294.9C447.2 292.8 445.6 291.2 443.5 291.2L408 291.2L408 277.5L443.5 277.5C445.6 277.5 447.2 275.9 447.2 273.8L447.2 260.8C447.1 258.9 445.5 257.1 443.5 257.1L443.6 257.1zM576 157.4L576 483.4C575.9 534.6 533.9 576.1 482.6 576L156.6 576C105.4 575.9 63.9 533.8 64 482.6L64 156.6C64.1 105.4 106.2 63.9 157.4 64L483.4 64C534.6 64.1 576.1 106.1 576 157.4zM505.6 297.5C505.6 214.1 421.9 146.2 319.2 146.2C216.5 146.2 132.8 214.1 132.8 297.5C132.8 372.2 199.1 434.9 288.7 446.8C310.5 451.5 308 459.5 303.1 488.9C302.3 493.6 299.3 507.3 319.2 499C339.1 490.7 426.5 435.8 465.7 390.8C492.7 361.1 505.6 331 505.6 297.7L505.6 297.5z"/>
  </symbol>

  <symbol id="social-icon-facebook" viewBox="0 0 640 640">
    <path d="M160 96C124.7 96 96 124.7 96 160L96 480C96 515.3 124.7 544 160 544L258.2 544L258.2 398.2L205.4 398.2L205.4 320L258.2 320L258.2 286.3C258.2 199.2 297.6 158.8 383.2 158.8C399.4 158.8 427.4 162 438.9 165.2L438.9 236C432.9 235.4 422.4 235 409.3 235C367.3 235 351.1 250.9 351.1 292.2L351.1 320L434.7 320L420.3 398.2L351 398.2L351 544L480 544C515.3 544 544 515.3 544 480L544 160C544 124.7 515.3 96 480 96L160 96z"/>
  </symbol>

  <symbol id="social-icon-instagram" viewBox="0 0 640 640">
    <path d="M320.3 205C256.8 204.8 205.2 256.2 205 319.7C204.8 383.2 256.2 434.8 319.7 435C383.2 435.2 434.8 383.8 435 320.3C435.2 256.8 383.8 205.2 320.3 205zM319.7 245.4C360.9 245.2 394.4 278.5 394.6 319.7C394.8 360.9 361.5 394.4 320.3 394.6C279.1 394.8 245.6 361.5 245.4 320.3C245.2 279.1 278.5 245.6 319.7 245.4zM413.1 200.3C413.1 185.5 425.1 173.5 439.9 173.5C454.7 173.5 466.7 185.5 466.7 200.3C466.7 215.1 454.7 227.1 439.9 227.1C425.1 227.1 413.1 215.1 413.1 200.3zM542.8 227.5C541.1 191.6 532.9 159.8 506.6 133.6C480.4 107.4 448.6 99.2 412.7 97.4C375.7 95.3 264.8 95.3 227.8 97.4C192 99.1 160.2 107.3 133.9 133.5C107.6 159.7 99.5 191.5 97.7 227.4C95.6 264.4 95.6 375.3 97.7 412.3C99.4 448.2 107.6 480 133.9 506.2C160.2 532.4 191.9 540.6 227.8 542.4C264.8 544.5 375.7 544.5 412.7 542.4C448.6 540.7 480.4 532.5 506.6 506.2C532.8 480 541 448.2 542.8 412.3C544.9 375.3 544.9 264.5 542.8 227.5zM495 452C487.2 471.6 472.1 486.7 452.4 494.6C422.9 506.3 352.9 503.6 320.3 503.6C287.7 503.6 217.6 506.2 188.2 494.6C168.6 486.8 153.5 471.7 145.6 452C133.9 422.5 136.6 352.5 136.6 319.9C136.6 287.3 134 217.2 145.6 187.8C153.4 168.2 168.5 153.1 188.2 145.2C217.7 133.5 287.7 136.2 320.3 136.2C352.9 136.2 423 133.6 452.4 145.2C472 153 487.1 168.1 495 187.8C506.7 217.3 504 287.3 504 319.9C504 352.5 506.7 422.6 495 452z"/>
  </symbol>

  <symbol id="soical-icon-line-origin" viewBox="808.505 448.506 320 320">
    <path
      fill="#00A75B"
      d="M1056.363 768.506H880.645c-39.843 0-72.14-32.299-72.14-72.141V520.647c0-39.842 32.297-72.141 72.14-72.141h175.719c39.843 0 72.141 32.299 72.141 72.141v175.718c0 39.842-32.298 72.141-72.142 72.141"
    />
    <path
      fill="#FFF"
      d="M1075.16 593.431c0-47.74-47.859-86.58-106.688-86.58-58.825 0-106.688 38.84-106.688 86.58 0 42.798 37.955 78.642 89.226 85.417 3.473.751 8.203 2.292 9.398 5.262 1.076 2.696.704 6.922.346 9.646 0 0-1.252 7.529-1.524 9.134-.465 2.695-2.144 10.549 9.243 5.752 11.387-4.799 61.44-36.18 83.824-61.94h-.005c15.417-17.696 22.825-34.904 22.825-54.009"
    />
    <path
      fill="#00A75B"
      d="M1039.667 620.996h-29.934c-1.125 0-2.037-.911-2.037-2.037v-46.558c0-1.125.912-2.037 2.037-2.037h29.934c1.12 0 2.037.916 2.037 2.037v7.566c0 1.125-.912 2.037-2.037 2.037h-20.37v7.857h20.37c1.12 0 2.037.917 2.037 2.037v7.567c0 1.125-.912 2.037-2.037 2.037h-20.37v7.857h20.37c1.12 0 2.037.916 2.037 2.036v7.566c0 1.125-.912 2.036-2.037 2.036"
    />
    <path
      fill="#00A75B"
      d="M928.793 620.996c1.125 0 2.037-.911 2.037-2.037v-7.566c0-1.12-.917-2.036-2.037-2.036h-20.371v-36.958c0-1.121-.916-2.037-2.036-2.037h-7.567c-1.125 0-2.037.912-2.037 2.037v46.561c0 1.126.912 2.037 2.037 2.037h27.974z"
    />
    <path
      fill="#00A75B"
      d="M946.837 570.36h-7.565c-1.125 0-2.038.913-2.038 2.037v46.562c0 1.125.913 2.037 2.038 2.037h7.565c1.126 0 2.037-.912 2.037-2.037v-46.562c0-1.124-.911-2.037-2.037-2.037"
    />
    <path
      fill="#00A75B"
      d="M998.346 570.36h-7.566c-1.125 0-2.037.913-2.037 2.037v27.655l-21.303-28.769a2.06 2.06 0 0 0-1.474-.673h-7.524c-1.125 0-2.037.913-2.037 2.037v46.562c0 1.125.912 2.037 2.037 2.037h7.566c1.125 0 2.037-.912 2.037-2.037v-27.646l21.331 28.805c.377.509.98.814 1.616.814h7.524c1.125 0 2.037-.912 2.037-2.037v-46.562c0-1.124-.912-2.037-2.037-2.037"
    />
  </symbol>
</svg>